<svg width="102" height="89" viewBox="0 0 102 89" fill="none" xmlns="http://www.w3.org/2000/svg">
<path d="M46.586 79.8323H43.1315V79.3475L44.9565 77.3061C45.2269 76.9975 45.4128 76.7471 45.5142 76.5552C45.618 76.3607 45.6699 76.1602 45.6699 75.9537C45.6699 75.6766 45.5866 75.4494 45.42 75.272C45.2534 75.0946 45.0314 75.0059 44.7537 75.0059C44.4206 75.0059 44.1611 75.1019 43.9752 75.2939C43.7918 75.4834 43.7 75.7483 43.7 76.0885H43.0301C43.0301 75.6001 43.1858 75.2052 43.4972 74.9038C43.8111 74.6025 44.2299 74.4518 44.7537 74.4518C45.2438 74.4518 45.6312 74.5818 45.9161 74.8418C46.2009 75.0994 46.3434 75.4433 46.3434 75.8735C46.3434 76.396 46.0126 77.0181 45.3512 77.7399L43.939 79.2819H46.586V79.8323Z" fill="black"/>
<path d="M50.6017 77.5686C50.6017 78.3584 50.4677 78.9453 50.1998 79.3293C49.9318 79.7132 49.513 79.9052 48.9433 79.9052C48.3808 79.9052 47.9644 79.7181 47.694 79.3438C47.4236 78.9672 47.2836 78.4058 47.274 77.6597V76.7593C47.274 75.9792 47.4079 75.3996 47.6759 75.0205C47.9439 74.6413 48.3639 74.4518 48.936 74.4518C49.5033 74.4518 49.9209 74.6353 50.1889 75.0022C50.4568 75.3668 50.5944 75.9306 50.6017 76.6937V77.5686ZM49.9318 76.6463C49.9318 76.0752 49.8521 75.6596 49.6928 75.3996C49.5335 75.1371 49.2812 75.0059 48.936 75.0059C48.5932 75.0059 48.3434 75.1359 48.1865 75.3959C48.0296 75.656 47.9487 76.0557 47.9439 76.5953V77.6743C47.9439 78.2478 48.0259 78.6719 48.1901 78.9465C48.3567 79.2187 48.6077 79.3548 48.9433 79.3548C49.274 79.3548 49.519 79.226 49.6783 78.9684C49.8401 78.7108 49.9246 78.3049 49.9318 77.7508V76.6463Z" fill="black"/>
<path d="M53.6615 79.8323H52.9879V75.3376L51.6373 75.837V75.2246L53.5564 74.4992H53.6615V79.8323Z" fill="black"/>
<path d="M58.1913 77.4993C58.0513 77.667 57.8836 77.8019 57.688 77.9039C57.4949 78.006 57.2825 78.057 57.0507 78.057C56.7466 78.057 56.481 77.9817 56.2541 77.831C56.0296 77.6803 55.8558 77.4689 55.7327 77.1967C55.6096 76.9221 55.548 76.6196 55.548 76.289C55.548 75.9342 55.6144 75.6146 55.7472 75.3303C55.8823 75.046 56.0731 74.8285 56.3193 74.6778C56.5655 74.5271 56.8528 74.4518 57.1811 74.4518C57.7025 74.4518 58.1129 74.6486 58.4122 75.0423C58.714 75.4336 58.8649 75.9683 58.8649 76.6463V76.8431C58.8649 77.876 58.6621 78.6306 58.2565 79.1069C57.851 79.5808 57.239 79.8238 56.4207 79.836H56.2903V79.2673H56.4315C56.9843 79.2576 57.4092 79.113 57.7061 78.8335C58.0031 78.5516 58.1648 78.1069 58.1913 77.4993ZM57.1594 77.4993C57.3839 77.4993 57.5903 77.43 57.7786 77.2915C57.9693 77.153 58.1081 76.9817 58.195 76.7775V76.5078C58.195 76.0655 58.0996 75.7058 57.9089 75.4287C57.7182 75.1517 57.4768 75.0132 57.1847 75.0132C56.8902 75.0132 56.6536 75.1274 56.475 75.3558C56.2963 75.5818 56.207 75.8808 56.207 76.2526C56.207 76.6147 56.2927 76.9136 56.4641 77.1493C56.6379 77.3826 56.8697 77.4993 57.1594 77.4993Z" fill="black"/>
<path d="M24.7331 66.5594H23.3354V61.6528H18.0197V66.5594H16.6293V55.9441H18.0197V60.5081H23.3354V55.9441H24.7331V66.5594Z" fill="black"/>
<path d="M31.8303 66.5594C31.7531 66.4039 31.6903 66.1268 31.642 65.7283C31.0192 66.3796 30.2757 66.7052 29.4115 66.7052C28.639 66.7052 28.0041 66.4865 27.5068 66.049C27.0143 65.6067 26.7681 65.0478 26.7681 64.3722C26.7681 63.5508 27.0771 62.914 27.6951 62.462C28.3179 62.0051 29.1918 61.7767 30.3167 61.7767H31.6203V61.157C31.6203 60.6855 31.4803 60.3113 31.2002 60.0342C30.9202 59.7523 30.5074 59.6114 29.9619 59.6114C29.4839 59.6114 29.0832 59.7329 28.7597 59.9759C28.4362 60.2189 28.2745 60.513 28.2745 60.8581H26.9274C26.9274 60.4644 27.065 60.0852 27.3402 59.7207C27.6203 59.3513 27.9969 59.0597 28.47 58.8458C28.948 58.632 29.4718 58.525 30.0415 58.525C30.9444 58.525 31.6517 58.7535 32.1634 59.2104C32.6752 59.6624 32.9408 60.287 32.9601 61.0841V64.7149C32.9601 65.4391 33.0518 66.015 33.2353 66.4427V66.5594H31.8303ZM29.607 65.5314C30.027 65.5314 30.4254 65.422 30.8019 65.2033C31.1785 64.9846 31.4513 64.7003 31.6203 64.3503V62.7318H30.5702C28.9287 62.7318 28.1079 63.2154 28.1079 64.1826C28.1079 64.6055 28.2479 64.936 28.5279 65.1742C28.808 65.4123 29.1676 65.5314 29.607 65.5314Z" fill="black"/>
<path d="M41.9981 64.7003L43.5045 58.6709H44.8443L42.563 66.5594H41.4767L39.5721 60.581L37.7181 66.5594H36.6318L34.3578 58.6709H35.6903L37.2329 64.5763L39.0579 58.6709H40.1369L41.9981 64.7003Z" fill="black"/>
<path d="M48.4001 62.9068L47.56 63.7889V66.5594H46.2202V55.3609H47.56V62.1339L48.277 61.2663L50.7176 58.6709H52.347L49.2981 61.9663L52.7019 66.5594H51.1304L48.4001 62.9068Z" fill="black"/>
<path d="M62.0441 66.5594H60.6464V61.6528H55.3307V66.5594H53.9403V55.9441H55.3307V60.5081H60.6464V55.9441H62.0441V66.5594Z" fill="black"/>
<path d="M69.1413 66.5594C69.0641 66.4039 69.0013 66.1268 68.953 65.7283C68.3302 66.3796 67.5867 66.7052 66.7225 66.7052C65.95 66.7052 65.3151 66.4865 64.8178 66.049C64.3254 65.6067 64.0791 65.0478 64.0791 64.3722C64.0791 63.5508 64.3881 62.914 65.0061 62.462C65.6289 62.0051 66.5028 61.7767 67.6277 61.7767H68.9313V61.157C68.9313 60.6855 68.7913 60.3113 68.5113 60.0342C68.2312 59.7523 67.8184 59.6114 67.2729 59.6114C66.7949 59.6114 66.3942 59.7329 66.0707 59.9759C65.7472 60.2189 65.5855 60.513 65.5855 60.8581H64.2384C64.2384 60.4644 64.3761 60.0852 64.6513 59.7207C64.9313 59.3513 65.3079 59.0597 65.781 58.8458C66.259 58.632 66.7828 58.525 67.3525 58.525C68.2554 58.525 68.9627 58.7535 69.4744 59.2104C69.9862 59.6624 70.2518 60.287 70.2711 61.0841V64.7149C70.2711 65.4391 70.3628 66.015 70.5463 66.4427V66.5594H69.1413ZM66.918 65.5314C67.338 65.5314 67.7364 65.422 68.1129 65.2033C68.4895 64.9846 68.7623 64.7003 68.9313 64.3503V62.7318H67.8812C66.2397 62.7318 65.4189 63.2154 65.4189 64.1826C65.4189 64.6055 65.5589 64.936 65.8389 65.1742C66.119 65.4123 66.4787 65.5314 66.918 65.5314Z" fill="black"/>
<path d="M75.5143 65.6043C75.9923 65.6043 76.4099 65.4585 76.7672 65.1669C77.1245 64.8752 77.3224 64.5107 77.361 64.0733H78.6284C78.6043 64.5253 78.4498 64.9554 78.1649 65.3637C77.8801 65.772 77.4986 66.0977 77.0207 66.3407C76.5475 66.5837 76.0454 66.7052 75.5143 66.7052C74.4473 66.7052 73.5976 66.348 72.9651 65.6335C72.3375 64.9141 72.0237 63.9323 72.0237 62.688V62.462C72.0237 61.6941 72.1637 61.0112 72.4437 60.4133C72.7237 59.8155 73.1244 59.3513 73.6459 59.0208C74.1721 58.6903 74.7925 58.525 75.5071 58.525C76.3858 58.525 77.1148 58.7899 77.6942 59.3197C78.2784 59.8495 78.5898 60.5373 78.6284 61.383H77.361C77.3224 60.8726 77.1293 60.4546 76.7817 60.129C76.4389 59.7985 76.014 59.6332 75.5071 59.6332C74.8263 59.6332 74.2977 59.8811 73.9211 60.3769C73.5493 60.8678 73.3634 61.5798 73.3634 62.5131V62.7682C73.3634 63.6771 73.5493 64.377 73.9211 64.868C74.2928 65.3589 74.8239 65.6043 75.5143 65.6043Z" fill="black"/>
<path d="M82.3218 62.9068L81.4818 63.7889V66.5594H80.142V55.3609H81.4818V62.1339L82.1987 61.2663L84.6393 58.6709H86.2688L83.2199 61.9663L86.6236 66.5594H85.0521L82.3218 62.9068Z" fill="black"/>
<path fill-rule="evenodd" clip-rule="evenodd" d="M38.293 0.0114406C40.1192 0.107015 42.0229 0.78709 43.2108 1.615C44.4906 2.50697 45.7089 3.47195 46.9161 4.42805C47.649 5.00858 48.3778 5.58584 49.1137 6.1415C50.1984 6.96043 50.9965 7.97247 51.7112 9.02939C51.995 9.44904 52.2623 9.87001 52.5284 10.2891C52.9414 10.9397 53.3516 11.5858 53.8165 12.2158C55.0396 13.8733 55.9211 16.1585 56.5094 18.5255C56.9947 20.4782 57.2834 22.4989 57.397 24.2913C59.7462 22.1439 62.4273 20.424 65.0795 18.7227C65.3663 18.5387 65.6528 18.3549 65.9386 18.1709C66.6642 17.7033 67.3631 17.2166 68.0585 16.7323C68.1619 16.6603 68.2652 16.5884 68.3685 16.5165C69.1651 15.9627 69.961 15.4167 70.7826 14.9186C72.4274 13.9214 74.1826 13.1111 76.2839 12.7977C77.772 12.5758 79.0826 12.3866 80.1841 12.7052C81.3172 13.0329 82.193 13.8817 82.8635 15.6175C83.4582 17.157 83.229 18.5594 82.5797 19.7884C81.9347 21.0091 80.8754 22.0603 79.8009 22.9257C77.9924 24.3822 76.0792 25.5934 74.0316 26.5133C75.636 26.3388 77.3874 26.2749 78.8419 26.6327C79.8518 26.8811 80.7425 27.3383 81.3368 28.1252C81.9333 28.915 82.2068 30.0043 82.0456 31.465C81.8832 32.9365 80.9983 34.0954 79.8875 34.9842C78.7767 35.873 77.4196 36.5089 76.2636 36.9351C75.2413 37.312 74.0615 37.5995 72.8735 37.7848C74.3056 38.0092 75.763 38.4279 77.0097 39.0889C79.0434 40.1671 80.5453 41.9107 80.4016 44.5149C80.3786 44.9315 80.1684 45.302 79.8811 45.622C79.5933 45.9427 79.2131 46.2298 78.8148 46.4827C78.2568 46.8371 77.6294 47.1435 77.1416 47.3818C76.9402 47.4802 76.7626 47.5669 76.6235 47.6406C75.6682 48.1468 74.7684 48.3494 73.879 48.4949C73.6617 48.5305 73.4464 48.5625 73.2315 48.5945C72.6921 48.6747 72.1553 48.7545 71.597 48.8887C72.5837 49.1039 73.5615 49.2769 74.5295 49.3026C76.2508 49.3482 77.9651 49.4885 79.6772 49.6287C79.8706 49.6445 80.064 49.6604 80.2574 49.676C82.165 49.8309 84.0724 49.9723 86.0016 49.9723H98.4776C99.0335 49.9723 99.4177 50.4304 99.6853 50.9765C99.9605 51.5383 100.16 52.2869 100.312 53.0539C100.465 53.8243 100.572 54.6296 100.656 55.3116C100.674 55.458 100.69 55.5979 100.706 55.7302C100.766 56.2226 100.812 56.6096 100.858 56.8306C101.6 60.417 102.495 65.394 101.671 69.1311C101.619 69.3643 101.456 69.5312 101.261 69.6502C101.066 69.7688 100.817 69.8546 100.543 69.9206C99.9946 70.0526 99.2869 70.1185 98.5739 70.1724C98.4233 70.1837 98.2724 70.1946 98.1223 70.2054C97.5533 70.2463 96.9951 70.2864 96.5064 70.3516C96.1984 70.3926 95.9256 70.4428 95.7011 70.5069C95.473 70.5721 95.3137 70.6467 95.2176 70.7259C94.3228 71.4629 92.8689 71.7662 91.82 71.8366C91.2076 71.8777 90.5921 71.9047 89.9749 71.9214C89.9353 71.9833 89.8663 72.0243 89.7877 72.0243C89.5081 72.0243 89.2294 72.0233 88.9515 72.0223C86.3887 72.0134 83.8957 72.0048 81.4619 72.7587C80.005 73.2099 78.6447 73.9225 77.276 74.6627C77.1713 74.7194 77.0665 74.7762 76.9616 74.8331C75.7017 75.5161 74.4276 76.2069 73.0812 76.6998C70.3803 77.6886 67.9542 79.1864 65.5397 80.7388C65.3054 80.8894 65.0711 81.0406 64.8367 81.1919C62.662 82.5956 60.4753 84.007 58.1059 85.0672C57.2138 85.4663 56.4108 86.0104 55.6073 86.5828C55.4893 86.6669 55.3712 86.7517 55.2528 86.8366C54.5698 87.3268 53.8762 87.8246 53.1332 88.2401C53.0119 88.308 52.8933 88.3833 52.7676 88.4631C52.694 88.5098 52.618 88.5581 52.5375 88.6074C52.3297 88.7346 52.1032 88.8608 51.8695 88.9341C51.6326 89.0084 51.3755 89.0325 51.1158 88.9394C50.8568 88.8466 50.6255 88.6483 50.4187 88.336C49.8728 87.5116 49.0667 86.7259 48.2045 85.9522C47.967 85.7392 47.7248 85.5266 47.4832 85.3146C46.8566 84.7647 46.2346 84.2189 45.7128 83.679C40.2416 78.0181 33.7202 75.1824 26.4951 72.3439C26.3807 72.2989 26.3241 72.1691 26.3688 72.0538C26.4134 71.9386 26.5424 71.8816 26.6569 71.9266C33.8837 74.7658 40.4873 77.6299 46.0317 83.3666C46.5399 83.8925 47.1403 84.4193 47.7614 84.9643C48.006 85.179 48.2539 85.3965 48.5006 85.6178C49.3648 86.3933 50.2088 87.2115 50.789 88.0876C50.9598 88.3455 51.1218 88.4661 51.265 88.5174C51.4074 88.5684 51.5612 88.5616 51.7371 88.5064C51.9163 88.4502 52.1045 88.3482 52.3063 88.2247C52.3728 88.1839 52.4427 88.1397 52.5138 88.0945C52.6477 88.0096 52.7864 87.9216 52.9171 87.8486C53.6364 87.4462 54.3071 86.9651 54.9909 86.4744C55.1102 86.3888 55.2298 86.303 55.3502 86.2172C56.1559 85.6432 56.9897 85.0764 57.9251 84.6579C60.2617 83.6124 62.4195 82.2198 64.5987 80.8134C64.8322 80.6627 65.066 80.5119 65.3002 80.3612C67.7145 78.809 70.1773 77.2862 72.9291 76.2788C74.2436 75.7976 75.49 75.122 76.7557 74.4359C76.8588 74.38 76.962 74.3241 77.0655 74.2681C78.4324 73.5288 79.8276 72.7962 81.331 72.3305C81.9804 72.1294 82.6337 71.9811 83.2899 71.8719C82.6816 71.8623 82.0756 71.8557 81.4733 71.8557C78.3264 71.8557 75.1945 71.9982 72.0624 72.1534C71.7621 72.1682 71.4619 72.1832 71.1616 72.1982C68.331 72.3395 65.499 72.4809 62.6611 72.5255C54.5401 72.6533 46.4348 72.4019 38.3349 72.1188C37.5908 72.0927 36.8467 72.0665 36.1027 72.0402C28.7462 71.7804 21.3933 71.5208 14.029 71.5208H0.73976C0.48536 71.5208 0.252287 71.4817 0.112721 71.3268C-0.0417541 71.1552 -0.00597231 70.935 0.0367947 70.7873C0.0735768 70.6602 0.137991 70.5143 0.200026 70.3737C0.213906 70.3423 0.227667 70.3111 0.240973 70.2805C0.318131 70.1028 0.389988 69.9231 0.430168 69.741C0.563346 69.1377 0.569382 68.4372 0.539181 67.713C0.528443 67.4555 0.512903 67.1926 0.49745 66.9312C0.470265 66.4713 0.443353 66.016 0.443353 65.603V51.3686C0.443353 51.2408 0.422402 50.9994 0.394943 50.683L0.394096 50.6733C0.366806 50.3588 0.33458 49.9837 0.316185 49.6116C0.297856 49.2409 0.292776 48.8651 0.321718 48.55C0.33618 48.3926 0.359708 48.2435 0.397209 48.1147C0.433593 47.9896 0.489307 47.8616 0.582446 47.7679C0.679399 47.6703 0.812405 47.6238 0.934732 47.5993C1.06174 47.5739 1.20793 47.5662 1.36076 47.5689C1.66683 47.5743 2.03382 47.6219 2.39673 47.6806C2.65016 47.7216 2.90846 47.7692 3.14729 47.8132C3.25062 47.8323 3.35032 47.8506 3.44439 47.8675C3.76656 47.9253 4.00952 47.9628 4.14062 47.9628C6.26535 47.9628 8.35578 48.1991 10.4318 48.4818C10.9625 48.5541 11.4919 48.6294 12.0206 48.7046C13.5644 48.924 15.1029 49.1427 16.6552 49.2848C21.2652 49.7067 26.7184 49.6841 31.2391 48.9702C31.3605 48.9511 31.4743 49.0346 31.4934 49.1568C31.4958 49.1721 31.4965 49.1874 31.4958 49.2023C31.7274 49.1106 31.9688 49.0339 32.2201 48.9736C32.3397 48.945 32.4596 49.0193 32.4881 49.1396C32.5165 49.26 32.4427 49.3807 32.3232 49.4094C30.19 49.9207 28.7964 51.7424 28.2361 53.9363C28.1669 54.2069 28.0746 54.9222 28.1186 55.5718C28.1406 55.8975 28.1958 56.1846 28.2908 56.3866C28.3837 56.584 28.494 56.6635 28.6251 56.6713C29.0655 56.6974 29.4169 56.4958 29.7389 56.1767C29.9728 55.9449 30.1706 55.674 30.3687 55.4028C30.4523 55.2884 30.536 55.1739 30.6224 55.0623C30.7619 54.882 30.9097 54.7091 31.0704 54.5805C31.2326 54.4506 31.4238 54.3531 31.6465 54.3521C31.8702 54.3512 32.0861 54.4477 32.2971 54.6253C32.5064 54.8014 32.7238 55.0675 32.9578 55.434C33.237 55.8711 33.6464 56.3684 34.0822 56.6418C34.2983 56.7774 34.5056 56.8483 34.6972 56.8449C34.882 56.8416 35.0765 56.7688 35.2749 56.569C35.6471 56.1944 36.0147 56.0188 36.356 55.8734C36.3959 55.8565 36.4351 55.84 36.4737 55.8237C36.7677 55.7002 37.0279 55.5909 37.2894 55.3803C37.6355 55.1015 37.7605 54.7581 37.7604 54.3762C37.7603 53.9823 37.6261 53.5482 37.4424 53.1183C37.3198 52.8314 37.1839 52.5649 37.0585 52.3187C36.994 52.1922 36.9323 52.0711 36.8765 51.9554C36.7981 51.7928 36.7291 51.6352 36.6939 51.5004C36.6763 51.4327 36.6636 51.3575 36.6687 51.2827C36.674 51.2051 36.7 51.1152 36.772 51.0427C36.8589 50.9553 36.9998 50.9553 37.0867 51.0427C37.1636 51.1202 37.1724 51.2403 37.113 51.3276C37.1141 51.3395 37.117 51.3587 37.1243 51.3868C37.1474 51.4755 37.1992 51.5987 37.2768 51.7598C37.3247 51.8591 37.3819 51.9715 37.4438 52.0932C37.5731 52.3472 37.723 52.6417 37.8511 52.9413C38.0424 53.3889 38.2053 53.8903 38.2054 54.3761C38.2055 54.874 38.0337 55.3545 37.5674 55.73C37.2539 55.9825 36.9349 56.116 36.6434 56.238C36.6049 56.2541 36.5668 56.27 36.5294 56.286C36.2063 56.4236 35.9012 56.5721 35.5896 56.8858C35.319 57.1582 35.0178 57.2872 34.7052 57.2928C34.3993 57.2983 34.1073 57.1854 33.8469 57.022C33.3297 56.6975 32.8774 56.1364 32.5836 55.6763C32.3613 55.3282 32.1723 55.1041 32.0118 54.969C31.8529 54.8353 31.7353 54.7997 31.6484 54.8001C31.5605 54.8005 31.4638 54.8379 31.3473 54.9311C31.2294 55.0255 31.1078 55.1639 30.9733 55.3376C30.9027 55.4289 30.8283 55.5307 30.75 55.6377C30.5441 55.9195 30.3118 56.2375 30.0511 56.4959C29.6808 56.8628 29.2133 57.1548 28.599 57.1185C28.2457 57.0975 28.021 56.8595 27.8887 56.5784C27.7586 56.3018 27.6982 55.9493 27.6747 55.6022C27.6275 54.9062 27.7238 54.143 27.8051 53.8247C28.2749 51.9856 29.3196 50.3428 30.9195 49.4721C26.4334 50.1346 21.1205 50.1432 16.615 49.7309C15.0507 49.5877 13.4964 49.3668 11.9497 49.1469C11.423 49.072 10.8972 48.9973 10.3721 48.9257C8.30077 48.6436 6.23443 48.4107 4.14062 48.4107C3.96179 48.4107 3.67591 48.364 3.36634 48.3085C3.2682 48.2909 3.16619 48.2721 3.06157 48.2528C2.82481 48.2092 2.57472 48.1631 2.32614 48.1229C1.96755 48.0649 1.62617 48.0216 1.35301 48.0168C1.21622 48.0144 1.10509 48.0219 1.02155 48.0386C0.933332 48.0563 0.902585 48.0791 0.897074 48.0846C0.880607 48.1012 0.851806 48.1458 0.824207 48.2406C0.797723 48.3316 0.777798 48.4495 0.764778 48.5913C0.738755 48.8745 0.742594 49.2255 0.760586 49.5893C0.77851 49.9519 0.810006 50.3191 0.837358 50.6343L0.840654 50.6722C0.866078 50.9649 0.888304 51.2208 0.888304 51.3686V65.603C0.888304 66.0048 0.913801 66.4342 0.940442 66.8829C0.956138 67.1472 0.972231 67.4182 0.983741 67.6942C1.01421 68.4249 1.01101 69.1746 0.864523 69.8382C0.814424 70.0652 0.727541 70.2783 0.648658 70.4599C0.631998 70.4983 0.615992 70.5346 0.600769 70.5692C0.539901 70.7075 0.491546 70.8174 0.463974 70.9126C0.442981 70.9851 0.443857 71.0172 0.445636 71.0283C0.460165 71.0379 0.527662 71.0728 0.73976 71.0728H14.029C21.4015 71.0728 28.7622 71.3328 36.1174 71.5925C36.8617 71.6188 37.6061 71.6451 38.3503 71.6711C46.4504 71.9542 54.5456 72.2052 62.6542 72.0776C65.4841 72.0331 68.3086 71.8921 71.1405 71.7508C71.4404 71.7358 71.7404 71.7208 72.0405 71.706C75.1726 71.5508 78.3142 71.4078 81.4733 71.4078C82.5886 71.4078 83.7068 71.4299 84.8248 71.452C87.1565 71.4981 89.4876 71.5442 91.7904 71.3896C92.8141 71.3209 94.1514 71.0253 94.9358 70.3792C95.1015 70.2427 95.3294 70.1475 95.5796 70.076C95.8334 70.0035 96.1299 69.9499 96.4479 69.9075C96.9514 69.8404 97.5277 69.799 98.0984 69.758C98.2467 69.7473 98.3945 69.7367 98.5406 69.7257C99.2575 69.6715 99.9308 69.6074 100.439 69.4849C100.694 69.4236 100.893 69.351 101.03 69.2671C101.167 69.1836 101.221 69.1041 101.236 69.034C102.037 65.4064 101.168 60.5249 100.422 56.9219C100.372 56.6804 100.322 56.2655 100.263 55.7692C100.247 55.64 100.231 55.5052 100.214 55.3666C100.131 54.6865 100.025 53.8948 99.8759 53.1415C99.7261 52.3847 99.5351 51.6826 99.2862 51.1747C99.0296 50.651 98.7564 50.4203 98.4776 50.4203H86.0016C84.0526 50.4203 82.1293 50.2774 80.2216 50.1225C80.0282 50.1068 79.8348 50.091 79.6417 50.0752C77.9279 49.9349 76.2261 49.7956 74.5178 49.7503C73.2139 49.7158 71.9 49.4243 70.616 49.1252C68.9123 49.4092 66.8454 48.9237 65.0381 48.0005C63.0252 46.9722 61.2676 45.3668 60.6722 43.5686C60.6334 43.4512 60.6964 43.3244 60.8129 43.2853C60.9295 43.2461 61.0555 43.3096 61.0943 43.4269C61.6374 45.067 63.2779 46.599 65.2394 47.601C65.5193 47.744 65.8044 47.8755 66.0922 47.9944C66.1256 47.9743 66.1646 47.9628 66.2064 47.9628C67.5823 47.9628 68.9912 48.2861 70.3819 48.6108L70.4639 48.6299C70.5188 48.6427 70.5736 48.6555 70.6284 48.6683C70.7767 48.641 70.9212 48.6072 71.0617 48.5668C71.8022 48.3538 72.5086 48.2489 73.1858 48.1483C73.3958 48.117 73.6031 48.0863 73.8077 48.0528C74.678 47.9104 75.5231 47.7175 76.4162 47.2442C76.5762 47.1595 76.768 47.0659 76.9791 46.9628C77.4597 46.7283 78.0409 46.4446 78.5774 46.1039C78.9594 45.8613 79.3017 45.5994 79.551 45.3217C79.8008 45.0434 79.9421 44.7663 79.9573 44.4901C80.0882 42.1178 78.7394 40.5122 76.8024 39.4852C74.8585 38.4546 72.3517 38.0279 70.2726 38.0279H69.8845C69.7616 38.0279 69.662 37.9277 69.662 37.804C69.662 37.6803 69.7616 37.58 69.8845 37.58C71.8699 37.58 74.2635 37.1954 76.1106 36.5144C77.2437 36.0967 78.5518 35.4807 79.6107 34.6335C80.6696 33.7862 81.4588 32.7248 81.6033 31.4156C81.7557 30.0352 81.4919 29.0706 80.9826 28.3963C80.4711 27.719 79.6872 27.3017 78.7363 27.0678C76.8309 26.5991 74.3506 26.8884 72.3707 27.184C70.9471 27.6954 69.4602 28.0699 67.9013 28.2941C67.8221 28.3055 67.751 28.3163 67.6875 28.3265C67.5717 28.3646 67.4658 28.3918 67.3818 28.4093C67.3378 28.4184 67.2983 28.4253 67.2653 28.4296C67.241 28.4328 67.1974 28.4381 67.1582 28.4338C67.1495 28.4328 67.1177 28.4293 67.0823 28.4125C67.0642 28.4039 67.0268 28.3833 66.996 28.3406C66.9592 28.2895 66.9447 28.2241 66.9586 28.1601C66.9702 28.1064 66.998 28.0716 67.0121 28.0559C67.0278 28.0386 67.043 28.0272 67.0519 28.021C67.0697 28.0087 67.086 28.001 67.0942 27.9973C67.1254 27.9833 67.1652 27.9723 67.2006 27.9634C67.2776 27.9442 67.401 27.9194 67.581 27.89C67.6454 27.8679 67.7125 27.8419 67.7795 27.8119C68.9903 27.2702 70.2139 27.0634 71.4956 26.8649L71.5404 26.8579C71.7698 26.8224 72.0117 26.7849 72.262 26.7474C74.8778 25.802 77.2783 24.3837 79.523 22.5759C80.5782 21.726 81.5834 20.7201 82.1869 19.578C82.7859 18.4442 82.989 17.1782 82.4488 15.7799C81.8107 14.1279 81.0194 13.4129 80.0612 13.1357C79.0714 12.8495 77.8665 13.0145 76.3491 13.2408C74.3261 13.5425 72.6276 14.3229 71.0122 15.3024C70.2036 15.7926 69.4177 16.3314 68.6213 16.8851C68.5185 16.9566 68.4155 17.0283 68.3123 17.1002C67.6173 17.5842 66.9113 18.0759 66.1784 18.5481C65.8934 18.7318 65.608 18.9149 65.3228 19.0979C62.561 20.8697 59.8085 22.6356 57.428 24.8712C57.4359 25.0525 57.4419 25.231 57.4461 25.4063C57.449 25.5299 57.3518 25.6326 57.2289 25.6355C57.1061 25.6385 57.0042 25.5406 57.0012 25.4169C57.0001 25.3693 56.9988 25.3215 56.9974 25.2734C56.9119 25.3204 56.8026 25.3065 56.7314 25.2327C56.6458 25.144 56.6478 25.0022 56.7359 24.916C56.8148 24.8389 56.8941 24.7623 56.9739 24.6862C56.8798 22.8323 56.5897 20.6942 56.0778 18.6342C55.4963 16.2944 54.6329 14.0733 53.4594 12.483C52.9889 11.8454 52.5597 11.1701 52.1378 10.5061C51.873 10.0894 51.611 9.67717 51.3434 9.28148C50.6399 8.24113 49.8742 7.27564 48.8468 6.49986C48.0926 5.93041 47.357 5.34761 46.6219 4.76523C45.425 3.81696 44.2296 2.86982 42.9576 1.98329C41.8415 1.20543 40.0184 0.550285 38.2699 0.458777C36.5163 0.367005 34.9142 0.842031 34.1283 2.22659C33.5627 3.2231 33.0336 4.27947 32.8667 5.34842C32.7018 6.40355 32.889 7.47436 33.772 8.52013C34.3514 9.20637 34.8635 9.90805 35.3656 10.5959C35.5786 10.8878 35.7899 11.1771 36.0036 11.4618C36.7253 12.4227 37.4867 13.3454 38.4776 14.1878C39.121 14.7348 39.8252 15.2582 40.544 15.7926C40.8743 16.0381 41.2077 16.2859 41.5398 16.5394C42.5868 17.3387 43.6099 18.187 44.4195 19.1651C44.9528 19.8093 45.5304 20.4263 46.1058 21.041C46.458 21.4173 46.8095 21.7927 47.1495 22.173C47.3132 22.3561 47.6595 22.8595 47.8519 23.298C47.9008 23.4094 47.9425 23.5226 47.9682 23.6297C47.9932 23.7331 48.0081 23.8501 47.9856 23.9603C47.9608 24.0821 47.8882 24.1978 47.7515 24.2567C47.6311 24.3087 47.4935 24.3016 47.3609 24.2719C46.7747 24.1408 46.2055 23.768 45.6779 23.3969C45.5933 23.3373 45.5096 23.2778 45.4269 23.2189C44.9784 22.8997 44.5566 22.5994 44.141 22.4164C41.5299 21.2663 39.114 20.7533 36.2952 20.1981C32.7678 19.5033 29.2031 19.3752 25.6569 20.0127C25.5451 20.0328 25.4142 20.0548 25.268 20.0794C24.5532 20.1996 23.4736 20.3811 22.4803 20.7005C21.8825 20.8927 21.3318 21.1302 20.9187 21.4241C20.5053 21.7183 20.2544 22.0505 20.2007 22.4289C20.0536 23.466 20.6172 24.238 21.4881 24.8313C22.3616 25.4263 23.5 25.8071 24.383 26.0516C26.569 26.6568 30.806 27.3532 34.3728 27.9395C34.7836 28.007 35.1854 28.0731 35.5742 28.1374C37.4484 28.4472 39.0245 28.7169 39.8132 28.9098C40.0087 28.9576 40.1689 29.0038 40.2752 29.0486C40.3208 29.0678 40.3899 29.0997 40.4398 29.1523C40.4663 29.1802 40.514 29.2418 40.5128 29.333C40.5114 29.4307 40.4556 29.4942 40.4181 29.5247C40.3819 29.5541 40.3431 29.5705 40.3164 29.58C40.2872 29.5904 40.2561 29.5983 40.2254 29.6045C40.1641 29.617 40.0883 29.6263 40.0005 29.6334C39.8241 29.6477 39.5782 29.6547 39.2582 29.6547C37.6423 29.6547 35.9771 29.5237 34.3083 29.3923C33.5126 29.3297 32.7161 29.267 31.9237 29.2185C29.4579 29.0673 27.0125 29.0504 24.668 29.5749C23.5741 29.8197 22.9338 30.1172 22.4165 30.5645C21.8896 31.0202 21.4761 31.6415 20.8532 32.5824L20.8125 32.6438C20.7683 32.7106 20.7201 32.7827 20.6687 32.8595C20.2544 33.4795 19.6339 34.408 19.2167 35.3522C18.9824 35.8826 18.8197 36.4022 18.7888 36.8627C18.7581 37.3195 18.8575 37.6992 19.1257 37.9851C20.4468 39.3934 22.7461 39.6251 25.2118 39.3817C27.0388 39.2014 28.8981 38.768 30.4305 38.4108C30.9509 38.2895 31.4336 38.177 31.8645 38.0861C32.5193 37.8566 33.196 37.6402 33.8873 37.4227C34.0473 37.3724 34.2439 37.3045 34.465 37.2281C34.9329 37.0665 35.5103 36.8671 36.0814 36.7166C36.5067 36.6045 36.9424 36.5151 37.3484 36.4839C37.7516 36.453 38.1441 36.4777 38.4721 36.6098C38.5009 36.6214 38.5714 36.6522 38.6161 36.726C38.6428 36.7701 38.6573 36.8251 38.65 36.8838C38.6432 36.9385 38.6198 36.9795 38.6003 37.0053C38.5647 37.0526 38.5189 37.0806 38.4934 37.095C38.4629 37.1121 38.4294 37.1267 38.3972 37.1391C38.2718 37.1876 38.0834 37.2345 37.8989 37.2748C37.7102 37.316 37.511 37.3533 37.3565 37.3809C37.279 37.3947 37.2124 37.4062 37.1637 37.4145L37.105 37.4245C37.0888 37.4273 37.084 37.4281 37.0847 37.428C36.2442 37.6011 35.4055 37.7832 34.5652 37.966L34.4884 37.9827C33.6739 38.1599 32.8579 38.3374 32.0393 38.5071C32.0209 38.5109 32.0024 38.5148 31.9838 38.5187C28.9696 39.5782 26.5049 40.8992 25.0795 43.9285C24.6408 44.861 24.6225 45.5884 24.8443 46.1551C25.068 46.7269 25.5527 47.1781 26.2043 47.5196C27.5134 48.2057 29.4073 48.4012 30.7922 48.2799C32.6453 48.1177 34.9452 47.1895 37.0076 45.8507C37.6437 45.4378 38.2539 44.988 38.8189 44.5125C38.4146 44.6226 38.0071 44.7436 37.5958 44.8657L37.5833 44.8695C37.1216 45.0066 36.6551 45.145 36.1893 45.2685C34.3333 45.7607 32.4263 46.035 30.6826 45.0319C30.5463 44.9535 30.4541 44.8364 30.4196 44.6892C30.3874 44.5515 30.4116 44.4119 30.4542 44.2886C30.5383 44.0449 30.7233 43.7831 30.9198 43.5476C31.2269 43.1793 31.618 42.8123 31.8326 42.6109C31.8933 42.5539 31.9399 42.5102 31.9665 42.4834C33.4832 40.9565 35.5754 40.3546 37.5344 39.791C37.7575 39.7268 37.9789 39.6631 38.1976 39.5986C38.3155 39.5638 38.4391 39.6318 38.4736 39.7505C38.5082 39.8692 38.4406 39.9937 38.3227 40.0284C38.1029 40.0933 37.8823 40.157 37.6617 40.2206C35.6862 40.7907 33.711 41.3607 32.2811 42.8002C32.2428 42.8388 32.1845 42.8936 32.1126 42.961C31.8927 43.1676 31.5462 43.4931 31.2606 43.8356C31.0706 44.0634 30.9306 44.2731 30.8745 44.4356C30.8469 44.5155 30.8472 44.5628 30.8528 44.5866C30.8561 44.6009 30.8632 44.6199 30.9034 44.643C32.4829 45.5516 34.2348 45.3235 36.076 44.8354C36.5345 44.7138 36.9947 44.5773 37.4574 44.4398L37.4729 44.4352C37.9294 44.2996 38.3884 44.1633 38.8444 44.042C39.0754 43.9805 39.3066 43.9226 39.5374 43.8704C40.4774 42.9764 41.2429 42.0153 41.7208 41.0531C41.7757 40.9424 41.9094 40.8976 42.0193 40.9529C42.1292 41.0082 42.1737 41.1428 42.1188 41.2534C41.6997 42.0972 41.0781 42.9305 40.3242 43.717C40.7488 43.6491 41.1707 43.6087 41.5871 43.6087C41.7099 43.6087 41.8095 43.709 41.8095 43.8327C41.8095 43.9564 41.7099 44.0566 41.5871 44.0566C40.994 44.0566 40.3813 44.1446 39.7524 44.2814C38.9981 44.9872 38.1449 45.6455 37.2487 46.2272C35.1498 47.5897 32.7802 48.5555 30.8308 48.7262C29.3958 48.8518 27.4086 48.6558 25.9988 47.9169C25.291 47.5459 24.7069 47.0262 24.4303 46.3193C24.1517 45.6073 24.2016 44.7481 24.6774 43.7368C25.754 41.4487 27.397 40.0943 29.3633 39.116C28.0862 39.4024 26.6577 39.6891 25.2552 39.8275C22.781 40.0718 20.2805 39.8685 18.8022 38.2927C18.4238 37.8893 18.3087 37.3716 18.3448 36.8326C18.3807 36.2972 18.5661 35.7226 18.8102 35.1702C19.2444 34.1873 19.8881 33.2246 20.3006 32.6078C20.3517 32.5315 20.3992 32.4604 20.4423 32.3953L20.498 32.3112C21.1025 31.3982 21.5483 30.7248 22.1266 30.2247C22.7194 29.712 23.4374 29.3914 24.5715 29.1377C26.9783 28.5992 29.4741 28.6195 31.9507 28.7714C32.7603 28.821 33.5658 28.8844 34.3658 28.9474C35.9604 29.073 37.5332 29.1968 39.0729 29.2062C38.2211 29.0345 36.9594 28.8203 35.5021 28.5794C35.113 28.5151 34.7103 28.4489 34.2981 28.3811C30.7394 27.7963 26.4761 27.0956 24.265 26.4835C23.3732 26.2366 22.1756 25.8404 21.2388 25.2023C20.2994 24.5623 19.5787 23.6449 19.7603 22.3656C19.838 21.8175 20.1959 21.3899 20.6619 21.0583C21.1284 20.7264 21.728 20.4721 22.3449 20.2738C23.3726 19.9433 24.4924 19.7554 25.2045 19.6358C25.3469 19.6119 25.4729 19.5908 25.5787 19.5718C29.1869 18.9231 32.8076 19.0547 36.3806 19.7585C39.2002 20.3139 41.6591 20.8343 44.3193 22.006C44.7805 22.2091 45.2465 22.5413 45.693 22.8595C45.7736 22.917 45.8536 22.974 45.9328 23.0297C46.4668 23.4053 46.9688 23.7253 47.4575 23.8346C47.5029 23.8448 47.5331 23.8471 47.5517 23.8471C47.5519 23.8241 47.5485 23.7877 47.5358 23.7352C47.5184 23.6627 47.4874 23.576 47.4449 23.479C47.2717 23.0844 46.9513 22.6209 46.8187 22.4726C46.4937 22.1091 46.1485 21.7402 45.7984 21.366C45.2145 20.7419 44.6171 20.1035 44.0777 19.4518C43.3019 18.5147 42.3124 17.6914 41.2709 16.8963C40.9492 16.6507 40.6215 16.4071 40.2941 16.1637C39.569 15.6247 38.8452 15.0866 38.1905 14.5301C37.1626 13.6562 36.3782 12.7032 35.6487 11.7319C35.4273 11.4371 35.2119 11.142 34.9967 10.8471C34.4988 10.1649 34.0017 9.48391 33.4329 8.81023C32.4574 7.6549 32.2443 6.44914 32.4271 5.27883C32.6078 4.12234 33.1743 3.00441 33.742 2.00435C34.6514 0.402154 36.4718 -0.0838699 38.293 0.0114406ZM40.1678 29.1578C40.1695 29.1572 40.1695 29.1571 40.1678 29.1578ZM36.0739 37.1822C36.3809 37.117 36.6881 37.0524 36.9957 36.9891C37.0027 36.9877 37.0282 36.9833 37.0662 36.9768C37.1187 36.9678 37.195 36.9548 37.2787 36.9398C36.9376 36.9744 36.568 37.0513 36.1941 37.1499C36.154 37.1605 36.1139 37.1713 36.0739 37.1822ZM67.7636 48.5343C68.0899 48.5819 68.4187 48.641 68.7499 48.7073C68.4259 48.6697 68.0959 48.6115 67.7636 48.5343ZM73.3475 17.3023C72.7415 17.4082 71.9908 17.8955 71.5204 18.369C70.9551 18.9381 70.2835 19.3677 69.6136 19.7643C69.4754 19.8461 69.3376 19.9263 69.2007 20.006C68.6668 20.3169 68.1466 20.6199 67.6699 20.9768C66.3864 21.9376 65.1856 22.9938 63.9907 24.0687C63.7982 24.2419 63.6058 24.4155 63.4133 24.5894C62.4125 25.4928 61.407 26.4006 60.3583 27.2599C60.263 27.338 60.1229 27.3236 60.0453 27.2276C59.9678 27.1317 59.9821 26.9906 60.0774 26.9125C61.1171 26.0606 62.1134 25.1612 63.1142 24.2577C63.3072 24.0834 63.5005 23.909 63.6942 23.7347C64.8902 22.6588 66.1036 21.591 67.4044 20.6173C67.9038 20.2435 68.4524 19.9241 68.9888 19.6119C69.123 19.5338 69.2564 19.4561 69.388 19.3781C70.0533 18.9843 70.683 18.5786 71.2058 18.0523C71.7116 17.543 72.5412 16.9885 73.2714 16.861C73.6411 16.7964 74.0249 16.8357 74.3154 17.0971C74.6031 17.3559 74.7462 17.7857 74.7462 18.3781C74.7462 22.4685 71.4488 25.3006 67.5371 25.3006C67.4143 25.3006 67.3147 25.2004 67.3147 25.0767C67.3147 24.953 67.4143 24.8527 67.5371 24.8527C71.2373 24.8527 74.3012 22.188 74.3012 18.3781C74.3012 17.845 74.1712 17.5681 74.0189 17.431C73.8692 17.2964 73.6459 17.2502 73.3475 17.3023ZM25.3977 22.2173C26.5702 22.1832 27.9249 22.2145 28.2303 22.2491C32.2247 22.7015 36.102 24.282 39.7664 25.7758C39.8467 25.8085 39.927 25.8412 40.0071 25.8738C40.121 25.9203 40.1759 26.0508 40.1298 26.1655C40.0837 26.2802 39.954 26.3355 39.8401 26.2891L39.6237 26.2009C35.9415 24.7 32.1135 23.1397 28.1805 22.6942C27.9086 22.6634 26.5809 22.631 25.4105 22.665C24.8425 22.6816 24.3265 22.7135 23.9933 22.766C26.3375 24.1395 28.5092 25.1876 31.2736 25.1876C31.3965 25.1876 31.4961 25.2879 31.4961 25.4116C31.4961 25.5353 31.3965 25.6356 31.2736 25.6356C28.2807 25.6356 25.9633 24.4532 23.5088 22.9997C23.4548 22.9677 23.3601 22.904 23.3256 22.7924C23.3048 22.725 23.3107 22.6544 23.3404 22.5924C23.3672 22.5367 23.4074 22.4996 23.4388 22.4763C23.4995 22.4314 23.5755 22.4032 23.6426 22.3834C23.7145 22.3622 23.7988 22.3443 23.8907 22.329C24.2549 22.2681 24.8115 22.2343 25.3977 22.2173ZM72.0146 31.9882C68.2324 31.9511 64.8289 31.9178 61.3138 33.651C61.2035 33.7054 61.0702 33.6595 61.0162 33.5484C60.9621 33.4373 61.0078 33.3032 61.1181 33.2487C64.7344 31.4656 68.25 31.5014 72.0266 31.5399C72.5819 31.5456 73.1427 31.5513 73.7104 31.5513C73.9561 31.5513 74.1533 31.5734 74.2978 31.6258C74.4433 31.6787 74.5942 31.7889 74.6054 31.9874C74.6145 32.1482 74.5206 32.287 74.4403 32.3814C74.3512 32.4861 74.2302 32.5913 74.0984 32.6916C73.5741 33.0903 72.7382 33.5132 72.4253 33.6392C69.7285 34.7252 66.1008 35.6834 63.2121 35.6834C63.0892 35.6834 62.9896 35.5832 62.9896 35.4595C62.9896 35.3358 63.0892 35.2355 63.2121 35.2355C66.0236 35.2355 69.5924 34.2976 72.2601 33.2233C72.5459 33.1082 73.3449 32.7032 73.8302 32.3341C73.9507 32.2425 74.0431 32.1595 74.1023 32.0899C74.1179 32.0716 74.1294 32.0564 74.1378 32.0441C74.0645 32.0196 73.9309 31.9992 73.7104 31.9992C73.1359 31.9992 72.5712 31.9937 72.0146 31.9882ZM29.4135 33.5608C29.4334 33.5608 29.4498 33.5608 29.4623 33.5608C32.7156 33.5608 35.7455 33.6312 38.9662 34.2345C39.087 34.2571 39.1667 34.374 39.1443 34.4956C39.1218 34.6172 39.0056 34.6975 38.8848 34.6749C35.7069 34.0796 32.7116 34.0088 29.4623 34.0088C29.4495 34.0088 29.433 34.0087 29.4131 34.0087C29.0935 34.0081 27.8851 34.0059 26.8981 34.0992C26.6367 34.1239 26.3944 34.155 26.1905 34.1938C25.9824 34.2333 25.8303 34.2781 25.7395 34.3236C25.7388 34.324 25.7381 34.3243 25.7375 34.3246C25.7709 34.3522 25.8207 34.3864 25.8922 34.4263C27.4469 35.2958 29.0183 35.5027 30.6311 35.4883C31.4091 35.4814 32.1925 35.4232 32.9895 35.364L33.0826 35.3571C33.9092 35.2957 34.75 35.2355 35.5986 35.2355C35.7215 35.2355 35.8211 35.3358 35.8211 35.4595C35.8211 35.5831 35.7215 35.6834 35.5986 35.6834C34.7686 35.6834 33.9434 35.7423 33.1153 35.8038L33.0172 35.8111C32.2241 35.87 31.4278 35.9292 30.635 35.9363C28.9803 35.951 27.3232 35.7391 25.6761 34.8179C25.5699 34.7585 25.48 34.6972 25.4112 34.6321C25.3445 34.5689 25.2803 34.4859 25.2588 34.381C25.2347 34.2639 25.2713 34.1592 25.3339 34.0806C25.3907 34.0094 25.468 33.9593 25.5411 33.9226C25.6885 33.8488 25.8897 33.7951 26.1079 33.7536C26.3304 33.7113 26.5875 33.6786 26.8566 33.6532C27.8666 33.5578 29.0956 33.5602 29.4135 33.5608ZM65.3347 39.3946C65.3808 39.2799 65.5105 39.2246 65.6244 39.271C68.0053 40.2412 70.1898 41.4041 72.3346 42.8076C72.4087 42.8561 72.519 42.9246 72.6548 43.0089C73.0511 43.255 73.6641 43.6357 74.2272 44.0469C74.6068 44.3241 74.9757 44.6235 75.252 44.9164C75.3902 45.0629 75.5103 45.2131 75.597 45.3631C75.6827 45.5115 75.7442 45.6745 75.7442 45.8422C75.7442 46.1262 75.53 46.3085 75.3087 46.4209C75.0789 46.5376 74.766 46.6207 74.4111 46.6819C73.6969 46.805 72.7433 46.8506 71.7684 46.8582C70.7909 46.8658 69.7808 46.8351 68.9495 46.8026C68.655 46.7911 68.3845 46.7795 68.146 46.7692C67.7061 46.7503 67.3752 46.7361 67.2044 46.7361C67.0816 46.7361 66.982 46.6358 66.982 46.5121C66.982 46.3884 67.0816 46.2881 67.2044 46.2881C67.3847 46.2881 67.733 46.3031 68.1836 46.3225C68.4197 46.3326 68.6839 46.344 68.9667 46.355C69.7958 46.3874 70.7978 46.4178 71.765 46.4103C72.7349 46.4027 73.6589 46.3571 74.336 46.2403C74.6767 46.1816 74.9379 46.1076 75.1083 46.021C75.2872 45.9301 75.2993 45.8629 75.2993 45.8422C75.2993 45.7831 75.2765 45.6993 75.2123 45.5883C75.1491 45.4787 75.0536 45.3566 74.9294 45.2248C74.6807 44.9612 74.3371 44.6806 73.9659 44.4095C73.4184 44.0096 72.8371 43.6486 72.4401 43.4021C72.2965 43.3129 72.1771 43.2388 72.0921 43.1831C69.9697 41.7943 67.8105 40.645 65.4575 39.6862C65.3436 39.6398 65.2886 39.5092 65.3347 39.3946ZM59.0742 48.4006C59.1407 48.5046 59.1108 48.6432 59.0074 48.7101C58.2851 49.1775 57.1756 50.3115 56.6267 51.4841C56.3527 52.0694 56.2322 52.6352 56.3381 53.1199C56.4409 53.5902 56.7664 54.0263 57.4803 54.3457C57.8285 54.5015 58.1793 54.6404 58.5133 54.674C58.8362 54.7065 59.1341 54.6401 59.3997 54.3875C59.5474 54.2472 59.7011 53.962 59.8505 53.5878C59.9963 53.2229 60.1249 52.8088 60.2369 52.4397C60.2482 52.4025 60.2593 52.3656 60.2704 52.329C60.3656 52.0142 60.4521 51.7279 60.5245 51.57C60.5445 51.5262 60.5716 51.4734 60.6077 51.4307C60.6255 51.4096 60.6576 51.3764 60.7058 51.3538C60.762 51.3275 60.8365 51.3185 60.9103 51.3514C60.974 51.3799 61.01 51.4278 61.0279 51.4569C61.0471 51.488 61.0593 51.52 61.0676 51.5463C61.0842 51.599 61.0955 51.6626 61.104 51.7315C61.2818 53.1635 62.1603 54.3259 63.4211 54.6886C63.5489 54.7253 63.6367 54.72 63.697 54.7005C63.7559 54.6815 63.8084 54.6426 63.8561 54.575C63.9589 54.4294 64.0217 54.1736 64.033 53.8379C64.0553 53.1731 63.8723 52.3612 63.6785 51.9711C63.6236 51.8605 63.6681 51.7259 63.778 51.6706C63.8879 51.6153 64.0215 51.6601 64.0765 51.7708C64.3075 52.236 64.5021 53.1236 64.4777 53.853C64.4655 54.2144 64.3988 54.5794 64.2189 54.8344C64.1252 54.9672 63.9981 55.0737 63.8331 55.127C63.6695 55.1799 63.4893 55.174 63.2989 55.1193C61.9913 54.7432 61.071 53.6363 60.7508 52.2795C60.7322 52.3404 60.7126 52.4049 60.6921 52.4727C60.6824 52.5046 60.6725 52.5372 60.6624 52.5705C60.5508 52.9387 60.4171 53.37 60.2634 53.7549C60.1133 54.1305 59.9302 54.4993 59.7052 54.7132C59.3271 55.0728 58.8922 55.1623 58.4691 55.1197C58.0571 55.0783 57.6486 54.9112 57.2996 54.755C56.4835 54.3899 56.0426 53.8521 55.9036 53.2162C55.7677 52.5946 55.9299 51.9218 56.2242 51.2931C56.8119 50.0377 57.9809 48.8419 58.7668 48.3333C58.8702 48.2664 59.0078 48.2965 59.0742 48.4006Z" fill="black"/>
</svg>
